<svg width="128.000000" height="32.000000" viewBox="0 0 128 32" fill="none" xmlns="http://www.w3.org/2000/svg" xmlns:xlink="http://www.w3.org/1999/xlink">
	<desc>
			Created with Pixso.
	</desc>
	<defs>
		<clipPath id="clip0_341">
			<rect width="128.000000" height="32.000000" fill="white" fill-opacity="0"/>
		</clipPath>
	</defs>
	<rect width="128.000000" height="32.000000" fill="#FFFFFF" fill-opacity="0"/>
	<g clip-path="url(#clip0_341)">
		<g opacity="0.350000">
			<rect y="22.000000" width="125.000000" height="6.000000" fill="#C9A96E" fill-opacity="1.000000"/>
		</g>
		<path d="M50.75 11.04L47.06 11.04C46.92 9.62 45.79 8.78 43.95 8.78C42.07 8.78 41.03 9.64 41.03 10.81C41 12.12 42.33 12.7 43.91 13.06L45.54 13.45C48.7 14.17 50.98 15.77 50.99 18.8C50.98 22.13 48.37 24.25 43.93 24.25C39.52 24.25 36.71 22.22 36.61 18.29L40.33 18.29C40.45 20.11 41.89 21.03 43.89 21.03C45.84 21.03 47.1 20.13 47.11 18.79C47.1 17.57 46 17 44.02 16.52L42.04 16.02C38.97 15.29 37.08 13.75 37.09 11.07C37.07 7.77 39.99 5.56 43.98 5.56C48.02 5.56 50.69 7.8 50.75 11.04ZM94.92 5.56C99.74 5.56 103.44 8.96 103.44 14.91C103.44 20.85 99.74 24.25 94.92 24.25C90.08 24.25 86.41 20.83 86.41 14.91C86.41 8.96 90.08 5.56 94.92 5.56ZM5.42 24L1.58 24L1.58 5.81L13.61 5.81L13.61 8.98L5.42 8.98L5.42 13.31L12.81 13.31L12.81 16.48L5.42 16.48L5.42 24ZM20.9 19.85L19.56 24L15.44 24L21.72 5.81L26.67 5.81L32.93 24L28.82 24L27.47 19.85L20.9 19.85ZM59.91 24L56.07 24L56.07 5.81L59.91 5.81L59.91 13.31L67.71 13.31L67.71 5.81L71.55 5.81L71.55 24L67.71 24L67.71 16.48L59.91 16.48L59.91 24ZM77.22 5.81L81.06 5.81L81.06 24L77.22 24L77.22 5.81ZM120.16 5.81L123.99 5.81L123.99 24L120.67 24L112.76 12.55L112.63 12.55L112.63 24L108.78 24L108.78 5.81L112.16 5.81L120 17.25L120.16 17.25L120.16 5.81ZM94.92 20.85C97.71 20.85 99.54 18.76 99.54 14.91C99.54 11.05 97.71 8.96 94.92 8.96C92.13 8.96 90.31 11.05 90.31 14.91C90.31 18.76 92.13 20.85 94.92 20.85ZM24.12 9.97L21.88 16.85L26.5 16.85L24.26 9.97L24.12 9.97Z" fill="#171717" fill-opacity="1.000000" fill-rule="evenodd"/>
	</g>
</svg>
